<svg width="728" height="436" viewBox="0 0 728 436" fill="none" xmlns="http://www.w3.org/2000/svg">
<g clip-path="url(#clip0_19_11)">
<path fill-rule="evenodd" clip-rule="evenodd" d="M313.936 315.063C313.005 314.134 312.267 313.031 311.763 311.817C311.259 310.602 311 309.3 311 307.985C311 306.67 311.259 305.368 311.763 304.154C312.267 302.939 313.005 301.836 313.936 300.907L346.857 267.997L313.936 235.087C313.007 234.158 312.27 233.054 311.767 231.84C311.264 230.626 311.005 229.324 311.005 228.01C311.005 226.695 311.264 225.393 311.767 224.179C312.27 222.965 313.007 221.861 313.936 220.932C314.865 220.002 315.968 219.265 317.183 218.762C318.397 218.259 319.698 218 321.012 218C322.326 218 323.627 218.259 324.841 218.762C326.055 219.265 327.158 220.002 328.088 220.932L368.064 260.92C368.995 261.848 369.733 262.951 370.237 264.166C370.741 265.38 371 266.682 371 267.997C371 269.312 370.741 270.614 370.237 271.829C369.733 273.043 368.995 274.147 368.064 275.075L328.088 315.063C327.159 315.994 326.056 316.733 324.842 317.237C323.628 317.741 322.326 318 321.012 318C319.697 318 318.396 317.741 317.182 317.237C315.967 316.733 314.864 315.994 313.936 315.063Z" fill="url(#paint0_linear_19_11)"/>
<path fill-rule="evenodd" clip-rule="evenodd" d="M251 268C251 265.348 252.054 262.804 253.929 260.929C255.804 259.054 258.348 258 261 258L341 258C343.652 258 346.196 259.054 348.071 260.929C349.946 262.804 351 265.348 351 268C351 270.652 349.946 273.196 348.071 275.071C346.196 276.946 343.652 278 341 278L261 278C258.348 278 255.804 276.946 253.929 275.071C252.054 273.196 251 270.652 251 268Z" fill="url(#paint1_linear_19_11)"/>
<path d="M122.139 327V247.187H123.255L151.733 311.977H167.168L195.485 247.167H196.602V327H218V207H194.07L159.969 284.893H159.191L125.09 207H101V327H122.139Z" fill="black"/>
<path d="M122.139 327V247.187H123.255L151.733 311.977H167.168L195.485 247.167H196.602V327H218V207H194.07L159.969 284.893H159.191L125.09 207H101V327H122.139Z" stroke="black" stroke-width="3"/>
<path d="M122.139 327V247.187H123.255L151.733 311.977H167.168L195.485 247.167H196.602V327H218V207H194.07L159.969 284.893H159.191L125.09 207H101V327H122.139Z" stroke="white" stroke-width="3"/>
<path fill-rule="evenodd" clip-rule="evenodd" d="M440.571 222H404V313.477H422.08V282.779H440.434C446.994 282.779 452.571 281.475 457.166 278.821C461.806 276.145 465.349 272.531 467.749 267.979C470.24 263.202 471.504 257.88 471.429 252.492C471.429 246.774 470.217 241.604 467.817 237.006C465.43 232.435 461.78 228.648 457.303 226.095C452.731 223.35 447.177 222 440.571 222ZM453.029 252.492C453.111 255.506 452.443 258.493 451.086 261.185C449.868 263.528 447.972 265.45 445.646 266.698C442.985 268.015 440.042 268.659 437.074 268.573H422.011V236.411H437.097C442.08 236.411 445.989 237.784 448.8 240.552C451.611 243.342 453.029 247.323 453.029 252.492ZM480.846 222V313.477H514.217C523.383 313.477 530.994 311.647 537.029 308.056C543.135 304.399 547.903 298.873 550.629 292.295C553.6 285.432 555.109 277.152 555.109 267.498C555.109 257.891 553.623 249.702 550.629 242.908C547.936 236.405 543.213 230.948 537.166 227.353C531.131 223.784 523.474 222 514.194 222H480.846ZM498.926 236.754H511.794C517.463 236.754 522.08 237.898 525.714 240.231C529.487 242.7 532.333 246.353 533.806 250.617C535.611 255.214 536.503 260.956 536.503 267.841C536.574 272.404 536.051 276.956 534.949 281.383C534.134 284.875 532.609 288.161 530.469 291.037C528.48 293.602 525.845 295.592 522.834 296.801C519.307 298.122 515.56 298.759 511.794 298.677H498.926V236.754ZM584.48 277.083V313.477H566.423V222H624.663V236.937H584.48V262.489H621.189V277.083H584.48Z" fill="black"/>
<path fill-rule="evenodd" clip-rule="evenodd" d="M440.571 222H404V313.477H422.08V282.779H440.434C446.994 282.779 452.571 281.475 457.166 278.821C461.806 276.145 465.349 272.531 467.749 267.979C470.24 263.202 471.504 257.88 471.429 252.492C471.429 246.774 470.217 241.604 467.817 237.006C465.43 232.435 461.78 228.648 457.303 226.095C452.731 223.35 447.177 222 440.571 222ZM453.029 252.492C453.111 255.506 452.443 258.493 451.086 261.185C449.868 263.528 447.972 265.45 445.646 266.698C442.985 268.015 440.042 268.659 437.074 268.573H422.011V236.411H437.097C442.08 236.411 445.989 237.784 448.8 240.552C451.611 243.342 453.029 247.323 453.029 252.492ZM480.846 222V313.477H514.217C523.383 313.477 530.994 311.647 537.029 308.056C543.135 304.399 547.903 298.873 550.629 292.295C553.6 285.432 555.109 277.152 555.109 267.498C555.109 257.891 553.623 249.702 550.629 242.908C547.936 236.405 543.213 230.948 537.166 227.353C531.131 223.784 523.474 222 514.194 222H480.846ZM498.926 236.754H511.794C517.463 236.754 522.08 237.898 525.714 240.231C529.487 242.7 532.333 246.353 533.806 250.617C535.611 255.214 536.503 260.956 536.503 267.841C536.574 272.404 536.051 276.956 534.949 281.383C534.134 284.875 532.609 288.161 530.469 291.037C528.48 293.602 525.845 295.592 522.834 296.801C519.307 298.122 515.56 298.759 511.794 298.677H498.926V236.754ZM584.48 277.083V313.477H566.423V222H624.663V236.937H584.48V262.489H621.189V277.083H584.48Z" stroke="black" stroke-width="3"/>
<path fill-rule="evenodd" clip-rule="evenodd" d="M440.571 222H404V313.477H422.08V282.779H440.434C446.994 282.779 452.571 281.475 457.166 278.821C461.806 276.145 465.349 272.531 467.749 267.979C470.24 263.202 471.504 257.88 471.429 252.492C471.429 246.774 470.217 241.604 467.817 237.006C465.43 232.435 461.78 228.648 457.303 226.095C452.731 223.35 447.177 222 440.571 222ZM453.029 252.492C453.111 255.506 452.443 258.493 451.086 261.185C449.868 263.528 447.972 265.45 445.646 266.698C442.985 268.015 440.042 268.659 437.074 268.573H422.011V236.411H437.097C442.08 236.411 445.989 237.784 448.8 240.552C451.611 243.342 453.029 247.323 453.029 252.492ZM480.846 222V313.477H514.217C523.383 313.477 530.994 311.647 537.029 308.056C543.135 304.399 547.903 298.873 550.629 292.295C553.6 285.432 555.109 277.152 555.109 267.498C555.109 257.891 553.623 249.702 550.629 242.908C547.936 236.405 543.213 230.948 537.166 227.353C531.131 223.784 523.474 222 514.194 222H480.846ZM498.926 236.754H511.794C517.463 236.754 522.08 237.898 525.714 240.231C529.487 242.7 532.333 246.353 533.806 250.617C535.611 255.214 536.503 260.956 536.503 267.841C536.574 272.404 536.051 276.956 534.949 281.383C534.134 284.875 532.609 288.161 530.469 291.037C528.48 293.602 525.845 295.592 522.834 296.801C519.307 298.122 515.56 298.759 511.794 298.677H498.926V236.754ZM584.48 277.083V313.477H566.423V222H624.663V236.937H584.48V262.489H621.189V277.083H584.48Z" stroke="white" stroke-width="3"/>
<path fill-rule="evenodd" clip-rule="evenodd" d="M204.75 2.15677e-05L637 2.67342e-06C661.135 1.61846e-06 684.281 7.65593 701.347 21.2836C718.412 34.9112 728 53.3943 728 72.6667L728 109L682.5 109L682.5 72.6667C682.5 63.0305 677.706 53.789 669.173 46.9751C660.64 40.1613 649.067 36.3333 637 36.3333L204.75 36.3334L204.75 109C204.75 123.454 197.559 137.317 184.76 147.537C171.961 157.758 154.601 163.5 136.5 163.5L45.5 163.5L45.5 363.333C45.5 372.97 50.2937 382.211 58.8266 389.025C67.3595 395.839 78.9326 399.667 91 399.667L500.5 399.667L500.5 436L91 436C66.8653 436 43.7191 428.344 26.6533 414.716C9.58747 401.089 -2.33394e-06 382.606 -3.17636e-06 363.333L-1.19114e-05 163.5L204.75 2.15677e-05Z" fill="url(#paint2_linear_19_11)"/>
</g>
<defs>
<linearGradient id="paint0_linear_19_11" x1="341.773" y1="318" x2="342.267" y2="218.582" gradientUnits="userSpaceOnUse">
<stop stop-color="#7EC031"/>
<stop offset="1" stop-color="#466D15"/>
</linearGradient>
<linearGradient id="paint1_linear_19_11" x1="302.289" y1="278" x2="302.3" y2="258.116" gradientUnits="userSpaceOnUse">
<stop stop-color="#7EC031"/>
<stop offset="1" stop-color="#466D15"/>
</linearGradient>
<linearGradient id="paint2_linear_19_11" x1="373.381" y1="436" x2="374.154" y2="2.52933" gradientUnits="userSpaceOnUse">
<stop stop-color="#7EC031"/>
<stop offset="1" stop-color="#466D15"/>
</linearGradient>
<clipPath id="clip0_19_11">
<rect width="728" height="436" fill="white"/>
</clipPath>
</defs>
</svg>
